<svg xmlns="http://www.w3.org/2000/svg" width="105" height="8"><g fill="#FFF" fill-rule="evenodd"><path fill-rule="nonzero" d="M84 4.87h-1.298V3.652h2.597V5.41C85.3 6.957 84.14 8 82.702 8s-2.598-1.043-2.598-2.609V2.61C80.104 1.043 81.282 0 82.702 0c1.437 0 2.597 1.06 2.597 2.609h-1.298c-.035-.713-.433-1.322-1.282-1.322-.675 0-1.299.452-1.299 1.322V5.39c0 .852.624 1.305 1.3 1.305.865 0 1.246-.592 1.28-1.305V4.87zM78.737 1.39H75.62v2.087h2.771v1.044h-2.77v2.087h3.116v1.217h-4.502V.174h4.502V1.39zm12.468 0h-3.117v2.087h2.77v1.044h-2.77v2.087h3.117v1.217h-4.502V.174h4.502V1.39zm2.598 6.435H92.59V.174h1.385l2.597 5.391V.174h1.213v7.652h-1.386l-2.597-5.391v5.391zm7.62 0H99.17V.174h2.251c1.905 0 2.961.887 2.961 3.13v1.392c-.017 2.243-1.073 3.13-2.96 3.13zM72.848 1.391l-2.771 6.435h-1.385l2.77-6.435H68V.174h4.849V1.39zm30.304 2.087c0-1.913-.883-1.913-1.732-1.913h-1.039v4.87h1.04c.848 0 1.73 0 1.73-1.913V3.478zM2.437 4.753H.656V8H0V0h2.39c1.78 0 2.155 1.412 2.155 2.07v.612c0 .66-.375 2.07-2.108 2.07zM3.889 2.07C3.89.8 2.905.61 2.343.61H.609v3.53h1.734c.562 0 1.5-.188 1.5-1.459v-.611h.046zM8.715 8c-1.78 0-2.249-1.412-2.249-2.07V2.07c0-.658.469-2.07 2.25-2.07 1.78 0 2.248 1.412 2.248 2.07v3.86c0 .658-.468 2.07-2.249 2.07zm1.64-5.93C10.355.8 9.278.613 8.715.613 8.2.612 7.075.8 7.075 2.07v3.811c0 1.27 1.125 1.46 1.64 1.46.516 0 1.64-.19 1.64-1.46V2.071z"/><path d="M19.399 8h-.891l-1.64-6.871L15.182 8h-.891l-1.687-8h.656l1.5 7.388L16.54 0h.656l1.781 7.388L20.476 0h.656zM22.772 8V0h4.311v.612h-3.655v2.823h3.421v.612h-3.421v3.341h3.655V8z"/><path fill-rule="nonzero" d="M33.315 8l-1.687-3.482h-1.64V8h-.656V0h2.39c1.78 0 2.155 1.365 2.155 2.024V2.4c0 .612-.28 1.741-1.593 2.024l1.734 3.529h-.703V8zm-.047-5.93c0-1.27-.984-1.458-1.546-1.458h-1.734v3.294h1.734c.562 0 1.5-.188 1.5-1.459v-.376h.046z"/><path d="M36.033 8V0h4.311v.612h-3.655v2.823h3.42v.612h-3.42v3.341h3.655V8z"/><path fill-rule="nonzero" d="M45.03 8h-2.437V0h2.39c1.78 0 2.155 1.412 2.155 2.07v3.86c0 .658-.375 2.07-2.109 2.07zm1.452-5.93c0-1.27-.984-1.458-1.5-1.458H43.25v6.776h1.78c.563 0 1.5-.235 1.5-1.506V2.071h-.047zM54.962 8h-2.436V0h2.39c1.78 0 2.062 1.365 2.062 2.024v.14c0 .471-.188 1.318-1.031 1.742 1.03.376 1.171 1.318 1.171 1.788v.282c0 .612-.328 2.024-2.155 2.024zm1.407-5.976c0-1.271-.938-1.412-1.453-1.412h-1.734v2.964h1.78c.61 0 1.407-.188 1.407-1.458v-.094zm.14 3.67c0-1.27-.843-1.506-1.5-1.506h-1.827v3.2h1.78c.563 0 1.547-.188 1.547-1.459v-.235z"/><path d="M61.57 5.129V8h-.656V5.129L58.758 0h.703l1.781 4.329L63.022 0h.703z"/></g></svg>